HIERARCHY
ROOT Hips
{
	OFFSET 0.000000 0.000000 0.000000 
	CHANNELS 6 Xposition Yposition Zposition Zrotation Yrotation Xrotation
	JOINT LeftUpLeg
	{
		OFFSET 1.363060 -1.794630 0.839290 
		CHANNELS 3 Zrotation Yrotation Xrotation
		JOINT LeftLeg
		{
			OFFSET 2.448110 -6.726130 0.000000 
			CHANNELS 3 Zrotation Yrotation Xrotation
			JOINT LeftFoot
			{
				OFFSET 2.562200 -7.039590 0.000000 
				CHANNELS 3 Zrotation Yrotation Xrotation
				JOINT LeftToeBase
				{
					OFFSET 0.157640 -0.433110 2.322550 
					CHANNELS 3 Zrotation Yrotation Xrotation
					End Site
					{
						OFFSET 0.000000 0.000000 0.000000 
					}
				}
			}
		}
	}
	JOINT RightUpLeg
	{
		OFFSET -1.305520 -1.794630 0.839290 
		CHANNELS 3 Zrotation Yrotation Xrotation
		JOINT RightLeg
		{
			OFFSET -2.542530 -6.985550 0.000000 
			CHANNELS 3 Zrotation Yrotation Xrotation
			JOINT RightFoot
			{
				OFFSET -2.568260 -7.056230 0.000000 
				CHANNELS 3 Zrotation Yrotation Xrotation
				JOINT RightToeBase
				{
					OFFSET -0.164730 -0.452590 2.363150 
					CHANNELS 3 Zrotation Yrotation Xrotation
					End Site
					{
						OFFSET 0.000000 0.000000 0.000000 
					}
				}
			}
		}
	}
	JOINT Spine
	{
		OFFSET 0.028270 2.035590 -0.193380 
		CHANNELS 3 Zrotation Yrotation Xrotation
		JOINT Spine1
		{
			OFFSET 0.056720 2.048850 -0.042750 
			CHANNELS 3 Zrotation Yrotation Xrotation
			JOINT Neck1
			{
				OFFSET -0.054170 1.746240 0.172020 
				CHANNELS 3 Zrotation Yrotation Xrotation
				JOINT Head
				{
					OFFSET 0.104070 1.761360 -0.123970 
					CHANNELS 3 Zrotation Yrotation Xrotation
					End Site
					{
						OFFSET 0.000000 0.000000 0.000000 
					}
				}
			}
			JOINT LeftArm
			{
				OFFSET 3.362410 1.200890 -0.311210 
				CHANNELS 3 Zrotation Yrotation Xrotation
				JOINT LeftForeArm
				{
					OFFSET 4.983000 -0.000000 -0.000000 
					CHANNELS 3 Zrotation Yrotation Xrotation
					JOINT LeftHand
					{
						OFFSET 3.483560 -0.000000 -0.000000 
						CHANNELS 3 Zrotation Yrotation Xrotation
						JOINT LeftHandIndex1
						{
							OFFSET 0.715260 -0.000000 -0.000000 
							CHANNELS 3 Zrotation Yrotation Xrotation
							End Site
							{
								OFFSET 0.000000 0.000000 0.000000 
							}
						}
					}
				}
			}
			JOINT RightArm
			{
				OFFSET -3.136600 1.374050 -0.404650 
				CHANNELS 3 Zrotation Yrotation Xrotation
				JOINT RightForeArm
				{
					OFFSET -5.241900 -0.000000 -0.000000 
					CHANNELS 3 Zrotation Yrotation Xrotation
					JOINT RightHand
					{
						OFFSET -3.444170 -0.000000 -0.000000 
						CHANNELS 3 Zrotation Yrotation Xrotation
						JOINT RightHandIndex1
						{
							OFFSET -0.622530 -0.000000 -0.000000 
							CHANNELS 3 Zrotation Yrotation Xrotation
							End Site
							{
								OFFSET 0.000000 0.000000 0.000000 
							}
						}
					}
				}
			}
		}
	}
}
MOTION
Frames: 12
Frame Time: 0.041667
-2.773795 17.774983 -1.183438 -10.134841 65.875653 -0.906940 -13.985693 -15.077008 -25.166979 1.808760 8.179602 25.274422 1.083125 -7.564427 6.166381 0.974000 -6.282800 -17.607200 34.330314 -11.605753 -11.237151 -7.693669 -14.163853 50.786234 -0.087404 0.621377 4.624640 -0.933200 6.153600 -17.230700 -1.607571 4.494353 -1.746827 -1.456575 2.325462 -3.218225 0.256081 5.486286 20.073220 0.598700 2.121900 10.047700 -16.024929 -4.349768 -39.866773 143.693041 -48.331007 -106.925499 0.541306 -0.888550 -23.829764 -7.125000 0.000000 0.000000 19.060184 6.520585 -42.970721 -145.472381 45.171221 -107.572900 0.038947 0.194064 1.433878 7.125000 0.000000 0.000000 
-2.819720 17.763577 -1.223760 -10.621369 65.752238 -1.506840 -13.802203 -14.864002 -25.399156 1.826671 8.225421 25.395117 1.108292 -7.831810 6.313152 0.994600 -6.346900 -17.794400 34.968542 -11.103055 -10.166280 -7.385639 -13.881132 49.633403 -0.090654 0.737021 4.502890 -0.676100 5.257500 -14.644600 -1.662192 4.715705 -1.772302 -1.757817 2.437947 -3.247116 -0.448105 5.617468 20.302791 0.148500 2.198600 10.273300 -15.766564 -4.178571 -39.872695 144.652328 -47.567060 -107.516371 0.544913 -0.872640 -24.283189 -7.125000 0.000000 0.000000 19.335568 6.676651 -42.433491 -146.065158 44.630320 -107.946022 0.044627 0.156302 2.301097 7.125000 0.000000 0.000000 
-2.863044 17.753772 -1.282091 -10.446669 65.570969 -1.202117 -13.826210 -15.082802 -25.843830 1.861497 8.308658 25.625147 1.092560 -7.651386 6.402672 0.932000 -6.149800 -17.219800 35.176882 -10.622363 -9.499069 -7.064563 -13.600348 48.434685 -0.121116 1.047431 4.700276 -0.616400 5.024600 -13.978700 -1.773065 4.925838 -1.851294 -2.191180 2.545850 -3.335719 -1.183271 5.740312 20.079458 -0.334800 2.294000 10.179600 -15.632397 -3.959090 -39.966055 145.658585 -46.749866 -108.125827 0.548843 -0.854606 -24.653296 -7.125000 0.000000 0.000000 19.612218 6.755433 -41.687648 -146.675810 44.058699 -108.327668 0.052200 0.113474 2.980895 7.125000 0.000000 0.000000 
-2.908768 17.740765 -1.339222 -10.181948 65.317303 -0.838137 -13.880299 -14.991431 -26.258820 1.869968 8.342208 25.702653 1.104491 -7.770963 6.728027 0.804400 -5.724100 -15.985900 35.303683 -10.147755 -8.862448 -6.774662 -13.337899 47.336804 -0.146536 1.314950 4.853323 -0.597800 4.949700 -13.765200 -1.824030 5.094098 -1.893788 -2.274481 2.632057 -3.267485 -1.098701 5.931287 20.218203 -0.255000 2.365800 10.306100 -15.615472 -3.647907 -40.224274 146.598718 -45.979036 -108.682043 0.549728 -0.825691 -24.991170 -7.125000 0.000000 0.000000 19.531797 7.018880 -41.398090 -148.053419 42.827921 -109.198927 0.043656 0.126360 1.722013 7.125000 0.000000 0.000000 
-2.956694 17.728758 -1.397654 -9.955268 65.175583 -0.496728 -13.955855 -14.952164 -26.702677 1.870284 8.361715 25.734261 1.123129 -7.966310 7.045641 0.699700 -5.346700 -14.900200 35.417339 -9.689900 -8.336032 -6.505905 -13.089516 46.302274 -0.157282 1.443824 5.073272 -0.542100 4.717200 -13.103700 -1.807019 5.117922 -1.912382 -2.125050 2.647924 -3.151494 -0.936807 6.121447 20.073488 -0.064100 2.409000 10.223500 -15.818471 -3.278744 -40.669061 147.405461 -45.320133 -109.151927 0.540642 -0.792698 -25.094684 -7.125000 0.000000 0.000000 19.280655 7.420313 -41.084342 -149.100362 41.839102 -109.843541 0.035736 0.123179 1.287765 7.125000 0.000000 0.000000 
-3.004420 17.723255 -1.450882 -9.492607 64.972957 -0.011940 -14.194263 -14.800438 -27.051759 1.869091 8.371623 25.749107 1.137529 -8.130329 7.158532 0.733000 -5.469800 -15.253500 35.367240 -9.085899 -7.710788 -6.232453 -12.828625 45.226871 -0.144784 1.369681 5.293754 -0.449100 4.299700 -11.921500 -1.845486 5.273834 -1.951748 -2.119960 2.725944 -3.146149 -0.782851 6.205712 19.995955 0.079400 2.425100 10.175300 -15.876777 -3.159086 -41.117625 147.917636 -44.882941 -109.452387 0.548269 -0.779307 -25.232893 -7.125000 0.000000 0.000000 19.205271 7.511110 -40.805905 -149.943871 41.013034 -110.356121 0.029831 0.111063 1.235851 7.125000 0.000000 0.000000 
-3.055447 17.708547 -1.520220 -8.526149 64.701009 0.991038 -14.613160 -14.941491 -27.350691 1.861142 8.360924 25.717461 1.111138 -7.811241 7.440413 0.635600 -5.100800 -14.196300 34.971117 -8.616878 -7.276334 -5.957269 -12.567078 44.141942 -0.160069 1.508985 5.717023 -0.452700 4.316400 -11.968600 -1.984901 5.483824 -2.036547 -2.422135 2.830343 -3.284651 -0.768728 6.164674 19.972819 0.095100 2.406200 10.166100 -15.682814 -3.083075 -41.405707 148.216554 -44.628607 -109.611579 0.547044 -0.762413 -25.645613 -7.125000 0.000000 0.000000 19.275980 7.523217 -40.572028 -150.766350 40.182789 -110.855788 0.026988 0.112030 1.291867 7.125000 0.000000 0.000000 
-3.107175 17.695340 -1.590758 -7.853228 64.563727 1.733904 -14.887449 -15.282293 -27.617740 1.839880 8.323167 25.601143 1.079826 -7.418045 7.840067 0.487600 -4.477500 -12.424100 34.776513 -8.006681 -6.821473 -5.682624 -12.294264 43.018765 -0.113950 1.104207 6.145838 -0.373500 3.925200 -10.866300 -2.097239 5.583745 -2.121638 -2.715208 2.880292 -3.426975 -0.860152 6.084246 19.902496 0.040000 2.376000 10.109300 -15.373397 -2.877028 -41.868799 148.389458 -44.502357 -109.701494 0.544365 -0.758403 -26.417128 -7.125000 0.000000 0.000000 19.536454 7.734409 -40.211654 -151.171655 39.732432 -111.106995 0.026794 0.101616 1.527646 7.125000 0.000000 0.000000 
-3.159904 17.687736 -1.647388 -7.069732 64.541409 2.483423 -15.935720 -12.662714 -28.896072 1.815438 8.332921 25.582288 1.307558 -10.400358 9.042207 0.368000 -3.896600 -10.786000 34.602192 -7.187177 -6.223944 -5.407444 -12.010085 41.865257 -0.038525 0.461447 6.491121 -0.235500 3.123100 -8.621800 -2.115698 5.552955 -2.112220 -2.636315 2.869741 -3.319252 -1.077962 6.216418 19.845037 -0.052000 2.417900 10.124500 -15.350789 -2.712942 -42.514557 148.381137 -44.550229 -109.694616 0.537062 -0.756296 -27.242230 -7.125000 0.000000 0.000000 19.462190 8.146042 -40.135624 -151.132045 39.746392 -111.085148 0.023943 0.088647 1.594883 7.125000 0.000000 0.000000 
-3.213032 17.675529 -1.714724 -6.217192 64.495724 3.548000 -16.719074 -11.577082 -29.926709 1.804630 8.354436 25.595235 1.377515 -11.687681 9.524633 0.374500 -3.930500 -10.881300 34.324473 -6.410849 -5.957464 -5.119161 -11.718317 40.689271 -0.051855 0.560884 6.872834 -0.206100 2.923400 -8.065600 -2.188099 5.573247 -2.123306 -2.768720 2.882753 -3.124849 -1.122606 6.245950 19.807424 -0.069700 2.423900 10.152000 -15.399396 -2.777702 -43.054086 148.409706 -44.544033 -109.702922 0.511216 -0.741952 -28.240493 -7.125000 0.000000 0.000000 19.201772 8.417712 -40.391674 -150.925762 39.953449 -110.965726 0.021100 0.092224 1.655605 7.125000 0.000000 0.000000 
-3.271364 17.653117 -1.774657 -6.217874 64.438825 3.617821 -16.841329 -11.290401 -30.446569 1.791270 8.354197 25.553178 1.392255 -11.951789 9.811374 0.381500 -3.966800 -10.983400 34.317062 -6.098074 -5.589089 -4.845980 -11.417507 39.567506 -0.123218 1.200085 7.101999 -0.138500 2.398500 -6.608400 -2.232741 5.578343 -2.170994 -2.994991 2.886028 -3.138877 -1.027228 6.199958 19.850236 0.001800 2.392900 10.184800 -15.202525 -2.674639 -43.673177 148.039342 -44.906074 -109.487841 0.518207 -0.765888 -29.522587 -7.125000 0.000000 0.000000 18.946358 8.580399 -40.538120 -150.727804 40.148162 -110.856321 0.017517 0.109119 1.756016 7.125000 0.000000 0.000000 
-3.335198 17.633607 -1.827385 -6.385745 64.382507 3.298541 -16.755500 -11.384674 -30.564456 1.781373 8.343612 25.508337 1.383831 -11.684166 10.079424 0.346900 -3.784400 -10.470800 34.400668 -5.594038 -4.949546 -4.603569 -11.130913 38.527195 -0.137791 1.369662 7.243112 -0.042000 1.322300 -3.636000 -2.277244 5.654702 -2.197845 -3.245119 2.920781 -3.242293 -0.935444 6.182337 19.847641 0.054900 2.387600 10.188600 -14.894730 -2.735017 -44.197225 147.332038 -45.545331 -109.076578 0.537182 -0.804921 -30.381005 -7.125000 0.000000 0.000000 19.037721 8.560924 -40.871619 -150.465996 40.419377 -110.708789 0.024627 0.135478 1.839179 7.125000 0.000000 0.000000 
